<svg width="352" height="374" viewBox="0 0 352 374" fill="none" xmlns="http://www.w3.org/2000/svg">
<rect width="352" height="374" fill="white"/>
<path d="M163.354 175.646C163.158 175.451 162.842 175.451 162.646 175.646L159.464 178.828C159.269 179.024 159.269 179.34 159.464 179.536C159.66 179.731 159.976 179.731 160.172 179.536L163 176.707L165.828 179.536C166.024 179.731 166.34 179.731 166.536 179.536C166.731 179.34 166.731 179.024 166.536 178.828L163.354 175.646ZM162.646 254.354C162.842 254.549 163.158 254.549 163.354 254.354L166.536 251.172C166.731 250.976 166.731 250.66 166.536 250.464C166.34 250.269 166.024 250.269 165.828 250.464L163 253.293L160.172 250.464C159.976 250.269 159.66 250.269 159.464 250.464C159.269 250.66 159.269 250.976 159.464 251.172L162.646 254.354ZM162.5 176V254H163.5V176H162.5Z" fill="black"/>
<path d="M125.646 197.354C125.842 197.549 126.158 197.549 126.354 197.354L129.536 194.172C129.731 193.976 129.731 193.66 129.536 193.464C129.34 193.269 129.024 193.269 128.828 193.464L126 196.293L123.172 193.464C122.976 193.269 122.66 193.269 122.464 193.464C122.269 193.66 122.269 193.976 122.464 194.172L125.646 197.354ZM126.354 119.646C126.158 119.451 125.842 119.451 125.646 119.646L122.464 122.828C122.269 123.024 122.269 123.34 122.464 123.536C122.66 123.731 122.976 123.731 123.172 123.536L126 120.707L128.828 123.536C129.024 123.731 129.34 123.731 129.536 123.536C129.731 123.34 129.731 123.024 129.536 122.828L126.354 119.646ZM126.5 197L126.5 120H125.5L125.5 197H126.5Z" fill="black"/>
<rect x="101.5" y="86.5" width="149" height="33" rx="3.5" fill="#31A9E9" stroke="black"/>
<path d="M150.149 98.2727H151.994V103.94C151.994 104.577 151.842 105.134 151.538 105.611C151.237 106.088 150.815 106.46 150.273 106.727C149.73 106.991 149.098 107.124 148.376 107.124C147.652 107.124 147.018 106.991 146.476 106.727C145.933 106.46 145.511 106.088 145.21 105.611C144.909 105.134 144.759 104.577 144.759 103.94V98.2727H146.604V103.783C146.604 104.115 146.676 104.411 146.821 104.669C146.969 104.928 147.176 105.131 147.443 105.278C147.71 105.426 148.021 105.5 148.376 105.5C148.734 105.5 149.045 105.426 149.31 105.278C149.577 105.131 149.783 104.928 149.928 104.669C150.075 104.411 150.149 104.115 150.149 103.783V98.2727ZM155.358 98.2727V107H153.512V98.2727H155.358ZM162.266 98.2727H164.112V103.94C164.112 104.577 163.96 105.134 163.656 105.611C163.354 106.088 162.933 106.46 162.39 106.727C161.847 106.991 161.215 107.124 160.494 107.124C159.769 107.124 159.136 106.991 158.593 106.727C158.05 106.46 157.629 106.088 157.327 105.611C157.026 105.134 156.876 104.577 156.876 103.94V98.2727H158.721V103.783C158.721 104.115 158.793 104.411 158.938 104.669C159.086 104.928 159.293 105.131 159.56 105.278C159.827 105.426 160.138 105.5 160.494 105.5C160.852 105.5 161.163 105.426 161.427 105.278C161.694 105.131 161.9 104.928 162.045 104.669C162.192 104.411 162.266 104.115 162.266 103.783V98.2727ZM167.36 98.2727L169.12 101.247H169.188L170.956 98.2727H173.04L170.377 102.636L173.1 107H170.978L169.188 104.021H169.12L167.33 107H165.216L167.948 102.636L165.267 98.2727H167.36ZM176.985 107V98.2727H178.83V105.479H182.572V107H176.985ZM185.626 107.124C185.208 107.124 184.836 107.051 184.51 106.906C184.183 106.759 183.924 106.541 183.734 106.254C183.547 105.964 183.453 105.604 183.453 105.172C183.453 104.808 183.52 104.503 183.653 104.256C183.787 104.009 183.968 103.81 184.199 103.659C184.429 103.509 184.69 103.395 184.983 103.318C185.278 103.241 185.588 103.188 185.912 103.156C186.292 103.116 186.599 103.08 186.832 103.045C187.065 103.009 187.234 102.955 187.339 102.884C187.444 102.812 187.497 102.707 187.497 102.568V102.543C187.497 102.273 187.412 102.064 187.241 101.916C187.074 101.768 186.835 101.695 186.525 101.695C186.199 101.695 185.939 101.767 185.745 101.912C185.552 102.054 185.424 102.233 185.362 102.449L183.683 102.312C183.768 101.915 183.936 101.571 184.186 101.281C184.436 100.989 184.758 100.764 185.153 100.608C185.551 100.449 186.011 100.369 186.534 100.369C186.897 100.369 187.245 100.412 187.578 100.497C187.913 100.582 188.21 100.714 188.468 100.893C188.73 101.072 188.936 101.303 189.086 101.584C189.237 101.862 189.312 102.196 189.312 102.585V107H187.591V106.092H187.539C187.434 106.297 187.294 106.477 187.118 106.634C186.941 106.787 186.73 106.908 186.483 106.996C186.235 107.081 185.95 107.124 185.626 107.124ZM186.146 105.871C186.413 105.871 186.649 105.818 186.853 105.713C187.058 105.605 187.218 105.46 187.335 105.278C187.451 105.097 187.51 104.891 187.51 104.661V103.966C187.453 104.003 187.375 104.037 187.275 104.068C187.179 104.097 187.069 104.124 186.947 104.149C186.825 104.172 186.703 104.193 186.581 104.213C186.458 104.23 186.348 104.246 186.248 104.26C186.035 104.291 185.849 104.341 185.69 104.409C185.531 104.477 185.407 104.57 185.319 104.686C185.231 104.8 185.187 104.942 185.187 105.112C185.187 105.359 185.277 105.548 185.456 105.679C185.637 105.807 185.868 105.871 186.146 105.871ZM191.607 109.455C191.377 109.455 191.161 109.436 190.959 109.399C190.76 109.365 190.596 109.321 190.465 109.267L190.874 107.912C191.087 107.977 191.279 108.013 191.449 108.018C191.623 108.024 191.772 107.984 191.897 107.899C192.025 107.814 192.128 107.669 192.208 107.464L192.314 107.188L189.966 100.455H191.875L193.23 105.261H193.299L194.667 100.455H196.588L194.044 107.707C193.922 108.06 193.756 108.366 193.546 108.628C193.338 108.892 193.076 109.095 192.757 109.237C192.439 109.382 192.056 109.455 191.607 109.455ZM200.289 107.128C199.616 107.128 199.037 106.991 198.551 106.719C198.068 106.443 197.696 106.054 197.434 105.551C197.173 105.045 197.042 104.447 197.042 103.757C197.042 103.084 197.173 102.493 197.434 101.984C197.696 101.476 198.064 101.08 198.538 100.795C199.015 100.511 199.575 100.369 200.217 100.369C200.649 100.369 201.051 100.439 201.423 100.578C201.798 100.714 202.125 100.92 202.403 101.196C202.684 101.472 202.903 101.818 203.059 102.236C203.216 102.651 203.294 103.136 203.294 103.693V104.192H197.767V103.067H201.585C201.585 102.805 201.528 102.574 201.414 102.372C201.301 102.17 201.143 102.013 200.941 101.899C200.743 101.783 200.511 101.724 200.247 101.724C199.971 101.724 199.727 101.788 199.514 101.916C199.304 102.041 199.139 102.21 199.02 102.423C198.9 102.634 198.839 102.868 198.836 103.126V104.196C198.836 104.52 198.896 104.8 199.015 105.036C199.137 105.271 199.309 105.453 199.531 105.581C199.752 105.709 200.015 105.773 200.319 105.773C200.521 105.773 200.706 105.744 200.873 105.688C201.041 105.631 201.184 105.545 201.304 105.432C201.423 105.318 201.514 105.179 201.576 105.014L203.255 105.125C203.17 105.528 202.995 105.881 202.731 106.182C202.47 106.48 202.132 106.713 201.717 106.881C201.305 107.045 200.829 107.128 200.289 107.128ZM204.478 107V100.455H206.238V101.597H206.306C206.426 101.19 206.626 100.884 206.907 100.676C207.189 100.466 207.512 100.361 207.879 100.361C207.97 100.361 208.068 100.366 208.173 100.378C208.278 100.389 208.37 100.405 208.45 100.425V102.036C208.365 102.01 208.247 101.987 208.096 101.967C207.946 101.947 207.808 101.938 207.683 101.938C207.416 101.938 207.177 101.996 206.967 102.112C206.76 102.226 206.595 102.385 206.473 102.589C206.353 102.794 206.294 103.03 206.294 103.297V107H204.478Z" fill="white"/>
<rect x="101.5" y="86.5" width="149" height="33" rx="3.5" fill="#31A9E9" stroke="black"/>
<path d="M147.817 98.2727H149.662V103.94C149.662 104.577 149.51 105.134 149.206 105.611C148.905 106.088 148.483 106.46 147.941 106.727C147.398 106.991 146.766 107.124 146.044 107.124C145.32 107.124 144.686 106.991 144.144 106.727C143.601 106.46 143.179 106.088 142.878 105.611C142.577 105.134 142.426 104.577 142.426 103.94V98.2727H144.272V103.783C144.272 104.115 144.344 104.411 144.489 104.669C144.637 104.928 144.844 105.131 145.111 105.278C145.378 105.426 145.689 105.5 146.044 105.5C146.402 105.5 146.713 105.426 146.978 105.278C147.245 105.131 147.451 104.928 147.596 104.669C147.743 104.411 147.817 104.115 147.817 103.783V98.2727ZM153.026 98.2727V107H151.18V98.2727H153.026ZM159.934 98.2727H161.779V103.94C161.779 104.577 161.627 105.134 161.324 105.611C161.022 106.088 160.6 106.46 160.058 106.727C159.515 106.991 158.883 107.124 158.162 107.124C157.437 107.124 156.804 106.991 156.261 106.727C155.718 106.46 155.297 106.088 154.995 105.611C154.694 105.134 154.544 104.577 154.544 103.94V98.2727H156.389V103.783C156.389 104.115 156.461 104.411 156.606 104.669C156.754 104.928 156.961 105.131 157.228 105.278C157.495 105.426 157.806 105.5 158.162 105.5C158.52 105.5 158.831 105.426 159.095 105.278C159.362 105.131 159.568 104.928 159.713 104.669C159.86 104.411 159.934 104.115 159.934 103.783V98.2727ZM165.028 98.2727L166.788 101.247H166.856L168.624 98.2727H170.708L168.045 102.636L170.768 107H168.646L166.856 104.021H166.788L164.998 107H162.884L165.616 102.636L162.935 98.2727H165.028ZM174.653 107V98.2727H176.498V105.479H180.24V107H174.653ZM183.294 107.124C182.876 107.124 182.504 107.051 182.178 106.906C181.851 106.759 181.592 106.541 181.402 106.254C181.214 105.964 181.121 105.604 181.121 105.172C181.121 104.808 181.188 104.503 181.321 104.256C181.455 104.009 181.636 103.81 181.866 103.659C182.097 103.509 182.358 103.395 182.651 103.318C182.946 103.241 183.256 103.188 183.58 103.156C183.96 103.116 184.267 103.08 184.5 103.045C184.733 103.009 184.902 102.955 185.007 102.884C185.112 102.812 185.165 102.707 185.165 102.568V102.543C185.165 102.273 185.08 102.064 184.909 101.916C184.741 101.768 184.503 101.695 184.193 101.695C183.866 101.695 183.607 101.767 183.413 101.912C183.22 102.054 183.092 102.233 183.03 102.449L181.351 102.312C181.436 101.915 181.604 101.571 181.854 101.281C182.104 100.989 182.426 100.764 182.821 100.608C183.219 100.449 183.679 100.369 184.202 100.369C184.565 100.369 184.913 100.412 185.246 100.497C185.581 100.582 185.878 100.714 186.136 100.893C186.398 101.072 186.604 101.303 186.754 101.584C186.905 101.862 186.98 102.196 186.98 102.585V107H185.259V106.092H185.207C185.102 106.297 184.962 106.477 184.786 106.634C184.609 106.787 184.398 106.908 184.151 106.996C183.903 107.081 183.618 107.124 183.294 107.124ZM183.814 105.871C184.081 105.871 184.317 105.818 184.521 105.713C184.726 105.605 184.886 105.46 185.003 105.278C185.119 105.097 185.178 104.891 185.178 104.661V103.966C185.121 104.003 185.043 104.037 184.943 104.068C184.847 104.097 184.737 104.124 184.615 104.149C184.493 104.172 184.371 104.193 184.249 104.213C184.126 104.23 184.016 104.246 183.916 104.26C183.703 104.291 183.517 104.341 183.358 104.409C183.199 104.477 183.075 104.57 182.987 104.686C182.899 104.8 182.855 104.942 182.855 105.112C182.855 105.359 182.945 105.548 183.124 105.679C183.305 105.807 183.536 105.871 183.814 105.871ZM189.275 109.455C189.045 109.455 188.829 109.436 188.627 109.399C188.428 109.365 188.263 109.321 188.133 109.267L188.542 107.912C188.755 107.977 188.947 108.013 189.117 108.018C189.29 108.024 189.44 107.984 189.565 107.899C189.692 107.814 189.796 107.669 189.876 107.464L189.982 107.188L187.634 100.455H189.543L190.898 105.261H190.967L192.335 100.455H194.256L191.712 107.707C191.59 108.06 191.424 108.366 191.214 108.628C191.006 108.892 190.744 109.095 190.425 109.237C190.107 109.382 189.724 109.455 189.275 109.455ZM197.957 107.128C197.284 107.128 196.705 106.991 196.219 106.719C195.736 106.443 195.364 106.054 195.102 105.551C194.841 105.045 194.71 104.447 194.71 103.757C194.71 103.084 194.841 102.493 195.102 101.984C195.364 101.476 195.732 101.08 196.206 100.795C196.683 100.511 197.243 100.369 197.885 100.369C198.317 100.369 198.719 100.439 199.091 100.578C199.466 100.714 199.793 100.92 200.071 101.196C200.352 101.472 200.571 101.818 200.727 102.236C200.884 102.651 200.962 103.136 200.962 103.693V104.192H195.435V103.067H199.253C199.253 102.805 199.196 102.574 199.082 102.372C198.969 102.17 198.811 102.013 198.609 101.899C198.411 101.783 198.179 101.724 197.915 101.724C197.639 101.724 197.395 101.788 197.182 101.916C196.972 102.041 196.807 102.21 196.688 102.423C196.568 102.634 196.507 102.868 196.504 103.126V104.196C196.504 104.52 196.564 104.8 196.683 105.036C196.805 105.271 196.977 105.453 197.199 105.581C197.42 105.709 197.683 105.773 197.987 105.773C198.189 105.773 198.374 105.744 198.541 105.688C198.709 105.631 198.852 105.545 198.972 105.432C199.091 105.318 199.182 105.179 199.244 105.014L200.923 105.125C200.838 105.528 200.663 105.881 200.399 106.182C200.138 106.48 199.8 106.713 199.385 106.881C198.973 107.045 198.497 107.128 197.957 107.128ZM202.146 107V100.455H203.906V101.597H203.974C204.094 101.19 204.294 100.884 204.575 100.676C204.857 100.466 205.18 100.361 205.547 100.361C205.638 100.361 205.736 100.366 205.841 100.378C205.946 100.389 206.038 100.405 206.118 100.425V102.036C206.033 102.01 205.915 101.987 205.764 101.967C205.614 101.947 205.476 101.938 205.351 101.938C205.084 101.938 204.845 101.996 204.635 102.112C204.428 102.226 204.263 102.385 204.141 102.589C204.021 102.794 203.962 103.03 203.962 103.297V107H202.146Z" fill="white"/>
<rect x="101.5" y="142.5" width="149" height="33" rx="3.5" fill="#31A9E9" stroke="black"/>
<path d="M150.149 154.273H151.994V159.94C151.994 160.577 151.842 161.134 151.538 161.611C151.237 162.088 150.815 162.46 150.273 162.727C149.73 162.991 149.098 163.124 148.376 163.124C147.652 163.124 147.018 162.991 146.476 162.727C145.933 162.46 145.511 162.088 145.21 161.611C144.909 161.134 144.759 160.577 144.759 159.94V154.273H146.604V159.783C146.604 160.115 146.676 160.411 146.821 160.669C146.969 160.928 147.176 161.131 147.443 161.278C147.71 161.426 148.021 161.5 148.376 161.5C148.734 161.5 149.045 161.426 149.31 161.278C149.577 161.131 149.783 160.928 149.928 160.669C150.075 160.411 150.149 160.115 150.149 159.783V154.273ZM155.358 154.273V163H153.512V154.273H155.358ZM162.266 154.273H164.112V159.94C164.112 160.577 163.96 161.134 163.656 161.611C163.354 162.088 162.933 162.46 162.39 162.727C161.847 162.991 161.215 163.124 160.494 163.124C159.769 163.124 159.136 162.991 158.593 162.727C158.05 162.46 157.629 162.088 157.327 161.611C157.026 161.134 156.876 160.577 156.876 159.94V154.273H158.721V159.783C158.721 160.115 158.793 160.411 158.938 160.669C159.086 160.928 159.293 161.131 159.56 161.278C159.827 161.426 160.138 161.5 160.494 161.5C160.852 161.5 161.163 161.426 161.427 161.278C161.694 161.131 161.9 160.928 162.045 160.669C162.192 160.411 162.266 160.115 162.266 159.783V154.273ZM167.36 154.273L169.12 157.247H169.188L170.956 154.273H173.04L170.377 158.636L173.1 163H170.978L169.188 160.021H169.12L167.33 163H165.216L167.948 158.636L165.267 154.273H167.36ZM176.985 163V154.273H178.83V161.479H182.572V163H176.985ZM185.626 163.124C185.208 163.124 184.836 163.051 184.51 162.906C184.183 162.759 183.924 162.541 183.734 162.254C183.547 161.964 183.453 161.604 183.453 161.172C183.453 160.808 183.52 160.503 183.653 160.256C183.787 160.009 183.968 159.81 184.199 159.659C184.429 159.509 184.69 159.395 184.983 159.318C185.278 159.241 185.588 159.188 185.912 159.156C186.292 159.116 186.599 159.08 186.832 159.045C187.065 159.009 187.234 158.955 187.339 158.884C187.444 158.812 187.497 158.707 187.497 158.568V158.543C187.497 158.273 187.412 158.064 187.241 157.916C187.074 157.768 186.835 157.695 186.525 157.695C186.199 157.695 185.939 157.767 185.745 157.912C185.552 158.054 185.424 158.233 185.362 158.449L183.683 158.312C183.768 157.915 183.936 157.571 184.186 157.281C184.436 156.989 184.758 156.764 185.153 156.608C185.551 156.449 186.011 156.369 186.534 156.369C186.897 156.369 187.245 156.412 187.578 156.497C187.913 156.582 188.21 156.714 188.468 156.893C188.73 157.072 188.936 157.303 189.086 157.584C189.237 157.862 189.312 158.196 189.312 158.585V163H187.591V162.092H187.539C187.434 162.297 187.294 162.477 187.118 162.634C186.941 162.787 186.73 162.908 186.483 162.996C186.235 163.081 185.95 163.124 185.626 163.124ZM186.146 161.871C186.413 161.871 186.649 161.818 186.853 161.713C187.058 161.605 187.218 161.46 187.335 161.278C187.451 161.097 187.51 160.891 187.51 160.661V159.966C187.453 160.003 187.375 160.037 187.275 160.068C187.179 160.097 187.069 160.124 186.947 160.149C186.825 160.172 186.703 160.193 186.581 160.213C186.458 160.23 186.348 160.246 186.248 160.26C186.035 160.291 185.849 160.341 185.69 160.409C185.531 160.477 185.407 160.57 185.319 160.686C185.231 160.8 185.187 160.942 185.187 161.112C185.187 161.359 185.277 161.548 185.456 161.679C185.637 161.807 185.868 161.871 186.146 161.871ZM191.607 165.455C191.377 165.455 191.161 165.436 190.959 165.399C190.76 165.365 190.596 165.321 190.465 165.267L190.874 163.912C191.087 163.977 191.279 164.013 191.449 164.018C191.623 164.024 191.772 163.984 191.897 163.899C192.025 163.814 192.128 163.669 192.208 163.464L192.314 163.188L189.966 156.455H191.875L193.23 161.261H193.299L194.667 156.455H196.588L194.044 163.707C193.922 164.06 193.756 164.366 193.546 164.628C193.338 164.892 193.076 165.095 192.757 165.237C192.439 165.382 192.056 165.455 191.607 165.455ZM200.289 163.128C199.616 163.128 199.037 162.991 198.551 162.719C198.068 162.443 197.696 162.054 197.434 161.551C197.173 161.045 197.042 160.447 197.042 159.757C197.042 159.084 197.173 158.493 197.434 157.984C197.696 157.476 198.064 157.08 198.538 156.795C199.015 156.511 199.575 156.369 200.217 156.369C200.649 156.369 201.051 156.439 201.423 156.578C201.798 156.714 202.125 156.92 202.403 157.196C202.684 157.472 202.903 157.818 203.059 158.236C203.216 158.651 203.294 159.136 203.294 159.693V160.192H197.767V159.067H201.585C201.585 158.805 201.528 158.574 201.414 158.372C201.301 158.17 201.143 158.013 200.941 157.899C200.743 157.783 200.511 157.724 200.247 157.724C199.971 157.724 199.727 157.788 199.514 157.916C199.304 158.041 199.139 158.21 199.02 158.423C198.9 158.634 198.839 158.868 198.836 159.126V160.196C198.836 160.52 198.896 160.8 199.015 161.036C199.137 161.271 199.309 161.453 199.531 161.581C199.752 161.709 200.015 161.773 200.319 161.773C200.521 161.773 200.706 161.744 200.873 161.688C201.041 161.631 201.184 161.545 201.304 161.432C201.423 161.318 201.514 161.179 201.576 161.014L203.255 161.125C203.17 161.528 202.995 161.881 202.731 162.182C202.47 162.48 202.132 162.713 201.717 162.881C201.305 163.045 200.829 163.128 200.289 163.128ZM204.478 163V156.455H206.238V157.597H206.306C206.426 157.19 206.626 156.884 206.907 156.676C207.189 156.466 207.512 156.361 207.879 156.361C207.97 156.361 208.068 156.366 208.173 156.378C208.278 156.389 208.37 156.405 208.45 156.425V158.036C208.365 158.01 208.247 157.987 208.096 157.967C207.946 157.947 207.808 157.938 207.683 157.938C207.416 157.938 207.177 157.996 206.967 158.112C206.76 158.226 206.595 158.385 206.473 158.589C206.353 158.794 206.294 159.03 206.294 159.297V163H204.478Z" fill="white"/>
<rect x="101.5" y="142.5" width="149" height="33" rx="3.5" fill="#31A9E9" stroke="black"/>
<path d="M130.891 163V154.273H134.386C135.028 154.273 135.563 154.368 135.992 154.558C136.421 154.749 136.744 155.013 136.96 155.351C137.175 155.686 137.283 156.072 137.283 156.51C137.283 156.851 137.215 157.151 137.079 157.409C136.942 157.665 136.755 157.875 136.516 158.04C136.281 158.202 136.011 158.317 135.707 158.385V158.47C136.039 158.484 136.35 158.578 136.64 158.751C136.933 158.925 137.17 159.168 137.352 159.48C137.533 159.79 137.624 160.159 137.624 160.588C137.624 161.051 137.509 161.464 137.279 161.828C137.052 162.189 136.715 162.474 136.269 162.685C135.823 162.895 135.273 163 134.62 163H130.891ZM132.737 161.491H134.241C134.755 161.491 135.13 161.393 135.366 161.197C135.602 160.999 135.719 160.734 135.719 160.405C135.719 160.163 135.661 159.95 135.545 159.766C135.428 159.581 135.262 159.436 135.046 159.331C134.833 159.226 134.579 159.173 134.283 159.173H132.737V161.491ZM132.737 157.925H134.104C134.357 157.925 134.582 157.881 134.778 157.793C134.977 157.702 135.133 157.574 135.246 157.409C135.363 157.244 135.421 157.047 135.421 156.817C135.421 156.501 135.309 156.247 135.085 156.054C134.863 155.861 134.548 155.764 134.138 155.764H132.737V157.925ZM142.988 160.213V156.455H144.804V163H143.061V161.811H142.993C142.845 162.195 142.599 162.503 142.255 162.736C141.914 162.969 141.498 163.085 141.007 163.085C140.569 163.085 140.184 162.986 139.852 162.787C139.52 162.588 139.26 162.305 139.072 161.939C138.887 161.572 138.794 161.134 138.791 160.622V156.455H140.606V160.298C140.609 160.685 140.713 160.99 140.917 161.214C141.122 161.439 141.396 161.551 141.74 161.551C141.958 161.551 142.163 161.501 142.353 161.402C142.544 161.3 142.697 161.149 142.814 160.95C142.933 160.751 142.991 160.506 142.988 160.213ZM151.702 158.321L150.04 158.423C150.011 158.281 149.95 158.153 149.857 158.04C149.763 157.923 149.639 157.831 149.486 157.763C149.335 157.692 149.155 157.656 148.945 157.656C148.663 157.656 148.426 157.716 148.233 157.835C148.04 157.952 147.943 158.108 147.943 158.304C147.943 158.46 148.006 158.592 148.131 158.7C148.256 158.808 148.47 158.895 148.774 158.96L149.959 159.199C150.595 159.33 151.07 159.54 151.382 159.83C151.695 160.119 151.851 160.5 151.851 160.972C151.851 161.401 151.724 161.777 151.472 162.101C151.222 162.425 150.878 162.678 150.44 162.859C150.006 163.038 149.504 163.128 148.936 163.128C148.07 163.128 147.379 162.947 146.865 162.587C146.354 162.223 146.054 161.729 145.966 161.104L147.751 161.01C147.805 161.274 147.936 161.476 148.143 161.615C148.351 161.751 148.616 161.82 148.94 161.82C149.259 161.82 149.514 161.759 149.707 161.636C149.903 161.511 150.003 161.351 150.006 161.155C150.003 160.99 149.933 160.855 149.797 160.75C149.661 160.642 149.45 160.56 149.166 160.503L148.033 160.277C147.393 160.149 146.918 159.928 146.605 159.612C146.295 159.297 146.141 158.895 146.141 158.406C146.141 157.986 146.254 157.624 146.482 157.32C146.712 157.016 147.034 156.781 147.449 156.616C147.866 156.452 148.355 156.369 148.915 156.369C149.741 156.369 150.392 156.544 150.866 156.893C151.344 157.243 151.622 157.719 151.702 158.321ZM152.994 163V156.455H154.809V163H152.994ZM153.906 155.611C153.636 155.611 153.404 155.521 153.211 155.342C153.021 155.161 152.926 154.943 152.926 154.69C152.926 154.44 153.021 154.226 153.211 154.047C153.404 153.865 153.636 153.774 153.906 153.774C154.176 153.774 154.406 153.865 154.596 154.047C154.789 154.226 154.886 154.44 154.886 154.69C154.886 154.943 154.789 155.161 154.596 155.342C154.406 155.521 154.176 155.611 153.906 155.611ZM158.079 159.216V163H156.263V156.455H157.994V157.609H158.07C158.215 157.229 158.458 156.928 158.799 156.706C159.14 156.482 159.553 156.369 160.039 156.369C160.494 156.369 160.89 156.469 161.228 156.668C161.566 156.866 161.829 157.151 162.016 157.52C162.204 157.886 162.298 158.324 162.298 158.832V163H160.482V159.156C160.485 158.756 160.383 158.443 160.175 158.219C159.968 157.991 159.683 157.878 159.319 157.878C159.075 157.878 158.859 157.93 158.671 158.036C158.487 158.141 158.342 158.294 158.237 158.496C158.134 158.695 158.082 158.935 158.079 159.216ZM166.711 163.128C166.038 163.128 165.458 162.991 164.973 162.719C164.49 162.443 164.118 162.054 163.856 161.551C163.595 161.045 163.464 160.447 163.464 159.757C163.464 159.084 163.595 158.493 163.856 157.984C164.118 157.476 164.485 157.08 164.96 156.795C165.437 156.511 165.997 156.369 166.639 156.369C167.071 156.369 167.473 156.439 167.845 156.578C168.22 156.714 168.547 156.92 168.825 157.196C169.106 157.472 169.325 157.818 169.481 158.236C169.637 158.651 169.716 159.136 169.716 159.693V160.192H164.189V159.067H168.007C168.007 158.805 167.95 158.574 167.836 158.372C167.723 158.17 167.565 158.013 167.363 157.899C167.164 157.783 166.933 157.724 166.669 157.724C166.393 157.724 166.149 157.788 165.936 157.916C165.725 158.041 165.561 158.21 165.441 158.423C165.322 158.634 165.261 158.868 165.258 159.126V160.196C165.258 160.52 165.318 160.8 165.437 161.036C165.559 161.271 165.731 161.453 165.953 161.581C166.174 161.709 166.437 161.773 166.741 161.773C166.943 161.773 167.127 161.744 167.295 161.688C167.463 161.631 167.606 161.545 167.725 161.432C167.845 161.318 167.936 161.179 167.998 161.014L169.677 161.125C169.592 161.528 169.417 161.881 169.153 162.182C168.892 162.48 168.554 162.713 168.139 162.881C167.727 163.045 167.251 163.128 166.711 163.128ZM176.346 158.321L174.684 158.423C174.656 158.281 174.595 158.153 174.501 158.04C174.407 157.923 174.284 157.831 174.13 157.763C173.98 157.692 173.799 157.656 173.589 157.656C173.308 157.656 173.071 157.716 172.877 157.835C172.684 157.952 172.588 158.108 172.588 158.304C172.588 158.46 172.65 158.592 172.775 158.7C172.9 158.808 173.115 158.895 173.419 158.96L174.603 159.199C175.24 159.33 175.714 159.54 176.027 159.83C176.339 160.119 176.495 160.5 176.495 160.972C176.495 161.401 176.369 161.777 176.116 162.101C175.866 162.425 175.522 162.678 175.085 162.859C174.65 163.038 174.149 163.128 173.581 163.128C172.714 163.128 172.024 162.947 171.51 162.587C170.998 162.223 170.699 161.729 170.61 161.104L172.396 161.01C172.45 161.274 172.581 161.476 172.788 161.615C172.995 161.751 173.261 161.82 173.585 161.82C173.903 161.82 174.159 161.759 174.352 161.636C174.548 161.511 174.647 161.351 174.65 161.155C174.647 160.99 174.578 160.855 174.441 160.75C174.305 160.642 174.095 160.56 173.811 160.503L172.677 160.277C172.038 160.149 171.562 159.928 171.25 159.612C170.94 159.297 170.785 158.895 170.785 158.406C170.785 157.986 170.899 157.624 171.126 157.32C171.356 157.016 171.679 156.781 172.093 156.616C172.511 156.452 173 156.369 173.559 156.369C174.386 156.369 175.037 156.544 175.511 156.893C175.988 157.243 176.267 157.719 176.346 158.321ZM183.085 158.321L181.423 158.423C181.394 158.281 181.333 158.153 181.239 158.04C181.146 157.923 181.022 157.831 180.869 157.763C180.718 157.692 180.538 157.656 180.327 157.656C180.046 157.656 179.809 157.716 179.616 157.835C179.423 157.952 179.326 158.108 179.326 158.304C179.326 158.46 179.388 158.592 179.513 158.7C179.638 158.808 179.853 158.895 180.157 158.96L181.342 159.199C181.978 159.33 182.452 159.54 182.765 159.83C183.077 160.119 183.234 160.5 183.234 160.972C183.234 161.401 183.107 161.777 182.854 162.101C182.604 162.425 182.261 162.678 181.823 162.859C181.388 163.038 180.887 163.128 180.319 163.128C179.452 163.128 178.762 162.947 178.248 162.587C177.737 162.223 177.437 161.729 177.349 161.104L179.134 161.01C179.188 161.274 179.319 161.476 179.526 161.615C179.734 161.751 179.999 161.82 180.323 161.82C180.641 161.82 180.897 161.759 181.09 161.636C181.286 161.511 181.386 161.351 181.388 161.155C181.386 160.99 181.316 160.855 181.18 160.75C181.043 160.642 180.833 160.56 180.549 160.503L179.415 160.277C178.776 160.149 178.3 159.928 177.988 159.612C177.678 159.297 177.523 158.895 177.523 158.406C177.523 157.986 177.637 157.624 177.864 157.32C178.094 157.016 178.417 156.781 178.832 156.616C179.249 156.452 179.738 156.369 180.298 156.369C181.124 156.369 181.775 156.544 182.249 156.893C182.727 157.243 183.005 157.719 183.085 158.321ZM187.188 163V154.273H189.033V161.479H192.775V163H187.188ZM195.829 163.124C195.412 163.124 195.039 163.051 194.713 162.906C194.386 162.759 194.127 162.541 193.937 162.254C193.75 161.964 193.656 161.604 193.656 161.172C193.656 160.808 193.723 160.503 193.856 160.256C193.99 160.009 194.172 159.81 194.402 159.659C194.632 159.509 194.893 159.395 195.186 159.318C195.481 159.241 195.791 159.188 196.115 159.156C196.495 159.116 196.802 159.08 197.035 159.045C197.268 159.009 197.437 158.955 197.542 158.884C197.647 158.812 197.7 158.707 197.7 158.568V158.543C197.7 158.273 197.615 158.064 197.444 157.916C197.277 157.768 197.038 157.695 196.728 157.695C196.402 157.695 196.142 157.767 195.949 157.912C195.755 158.054 195.627 158.233 195.565 158.449L193.886 158.312C193.971 157.915 194.139 157.571 194.389 157.281C194.639 156.989 194.961 156.764 195.356 156.608C195.754 156.449 196.214 156.369 196.737 156.369C197.1 156.369 197.449 156.412 197.781 156.497C198.116 156.582 198.413 156.714 198.672 156.893C198.933 157.072 199.139 157.303 199.289 157.584C199.44 157.862 199.515 158.196 199.515 158.585V163H197.794V162.092H197.743C197.637 162.297 197.497 162.477 197.321 162.634C197.145 162.787 196.933 162.908 196.686 162.996C196.439 163.081 196.153 163.124 195.829 163.124ZM196.349 161.871C196.616 161.871 196.852 161.818 197.056 161.713C197.261 161.605 197.422 161.46 197.538 161.278C197.654 161.097 197.713 160.891 197.713 160.661V159.966C197.656 160.003 197.578 160.037 197.478 160.068C197.382 160.097 197.272 160.124 197.15 160.149C197.028 160.172 196.906 160.193 196.784 160.213C196.662 160.23 196.551 160.246 196.451 160.26C196.238 160.291 196.052 160.341 195.893 160.409C195.734 160.477 195.61 160.57 195.522 160.686C195.434 160.8 195.39 160.942 195.39 161.112C195.39 161.359 195.48 161.548 195.659 161.679C195.841 161.807 196.071 161.871 196.349 161.871ZM201.81 165.455C201.58 165.455 201.364 165.436 201.162 165.399C200.963 165.365 200.799 165.321 200.668 165.267L201.077 163.912C201.29 163.977 201.482 164.013 201.652 164.018C201.826 164.024 201.975 163.984 202.1 163.899C202.228 163.814 202.331 163.669 202.411 163.464L202.517 163.188L200.169 156.455H202.078L203.434 161.261H203.502L204.87 156.455H206.792L204.248 163.707C204.125 164.06 203.959 164.366 203.749 164.628C203.542 164.892 203.279 165.095 202.961 165.237C202.642 165.382 202.259 165.455 201.81 165.455ZM210.493 163.128C209.819 163.128 209.24 162.991 208.754 162.719C208.271 162.443 207.899 162.054 207.637 161.551C207.376 161.045 207.245 160.447 207.245 159.757C207.245 159.084 207.376 158.493 207.637 157.984C207.899 157.476 208.267 157.08 208.741 156.795C209.218 156.511 209.778 156.369 210.42 156.369C210.852 156.369 211.254 156.439 211.626 156.578C212.001 156.714 212.328 156.92 212.606 157.196C212.887 157.472 213.106 157.818 213.262 158.236C213.419 158.651 213.497 159.136 213.497 159.693V160.192H207.97V159.067H211.788C211.788 158.805 211.731 158.574 211.618 158.372C211.504 158.17 211.346 158.013 211.145 157.899C210.946 157.783 210.714 157.724 210.45 157.724C210.174 157.724 209.93 157.788 209.717 157.916C209.507 158.041 209.342 158.21 209.223 158.423C209.103 158.634 209.042 158.868 209.039 159.126V160.196C209.039 160.52 209.099 160.8 209.218 161.036C209.341 161.271 209.512 161.453 209.734 161.581C209.956 161.709 210.218 161.773 210.522 161.773C210.724 161.773 210.909 161.744 211.076 161.688C211.244 161.631 211.387 161.545 211.507 161.432C211.626 161.318 211.717 161.179 211.779 161.014L213.458 161.125C213.373 161.528 213.199 161.881 212.934 162.182C212.673 162.48 212.335 162.713 211.92 162.881C211.508 163.045 211.032 163.128 210.493 163.128ZM214.681 163V156.455H216.441V157.597H216.51C216.629 157.19 216.829 156.884 217.11 156.676C217.392 156.466 217.716 156.361 218.082 156.361C218.173 156.361 218.271 156.366 218.376 156.378C218.481 156.389 218.574 156.405 218.653 156.425V158.036C218.568 158.01 218.45 157.987 218.299 157.967C218.149 157.947 218.011 157.938 217.886 157.938C217.619 157.938 217.38 157.996 217.17 158.112C216.963 158.226 216.798 158.385 216.676 158.589C216.556 158.794 216.497 159.03 216.497 159.297V163H214.681Z" fill="white"/>
<rect x="101.5" y="254.5" width="149" height="33" rx="3.5" fill="#31A9E9" stroke="black"/>
<path d="M150.149 266.273H151.994V271.94C151.994 272.577 151.842 273.134 151.538 273.611C151.237 274.088 150.815 274.46 150.273 274.727C149.73 274.991 149.098 275.124 148.376 275.124C147.652 275.124 147.018 274.991 146.476 274.727C145.933 274.46 145.511 274.088 145.21 273.611C144.909 273.134 144.759 272.577 144.759 271.94V266.273H146.604V271.783C146.604 272.115 146.676 272.411 146.821 272.669C146.969 272.928 147.176 273.131 147.443 273.278C147.71 273.426 148.021 273.5 148.376 273.5C148.734 273.5 149.045 273.426 149.31 273.278C149.577 273.131 149.783 272.928 149.928 272.669C150.075 272.411 150.149 272.115 150.149 271.783V266.273ZM155.358 266.273V275H153.512V266.273H155.358ZM162.266 266.273H164.112V271.94C164.112 272.577 163.96 273.134 163.656 273.611C163.354 274.088 162.933 274.46 162.39 274.727C161.847 274.991 161.215 275.124 160.494 275.124C159.769 275.124 159.136 274.991 158.593 274.727C158.05 274.46 157.629 274.088 157.327 273.611C157.026 273.134 156.876 272.577 156.876 271.94V266.273H158.721V271.783C158.721 272.115 158.793 272.411 158.938 272.669C159.086 272.928 159.293 273.131 159.56 273.278C159.827 273.426 160.138 273.5 160.494 273.5C160.852 273.5 161.163 273.426 161.427 273.278C161.694 273.131 161.9 272.928 162.045 272.669C162.192 272.411 162.266 272.115 162.266 271.783V266.273ZM167.36 266.273L169.12 269.247H169.188L170.956 266.273H173.04L170.377 270.636L173.1 275H170.978L169.188 272.021H169.12L167.33 275H165.216L167.948 270.636L165.267 266.273H167.36ZM176.985 275V266.273H178.83V273.479H182.572V275H176.985ZM185.626 275.124C185.208 275.124 184.836 275.051 184.51 274.906C184.183 274.759 183.924 274.541 183.734 274.254C183.547 273.964 183.453 273.604 183.453 273.172C183.453 272.808 183.52 272.503 183.653 272.256C183.787 272.009 183.968 271.81 184.199 271.659C184.429 271.509 184.69 271.395 184.983 271.318C185.278 271.241 185.588 271.188 185.912 271.156C186.292 271.116 186.599 271.08 186.832 271.045C187.065 271.009 187.234 270.955 187.339 270.884C187.444 270.812 187.497 270.707 187.497 270.568V270.543C187.497 270.273 187.412 270.064 187.241 269.916C187.074 269.768 186.835 269.695 186.525 269.695C186.199 269.695 185.939 269.767 185.745 269.912C185.552 270.054 185.424 270.233 185.362 270.449L183.683 270.312C183.768 269.915 183.936 269.571 184.186 269.281C184.436 268.989 184.758 268.764 185.153 268.608C185.551 268.449 186.011 268.369 186.534 268.369C186.897 268.369 187.245 268.412 187.578 268.497C187.913 268.582 188.21 268.714 188.468 268.893C188.73 269.072 188.936 269.303 189.086 269.584C189.237 269.862 189.312 270.196 189.312 270.585V275H187.591V274.092H187.539C187.434 274.297 187.294 274.477 187.118 274.634C186.941 274.787 186.73 274.908 186.483 274.996C186.235 275.081 185.95 275.124 185.626 275.124ZM186.146 273.871C186.413 273.871 186.649 273.818 186.853 273.713C187.058 273.605 187.218 273.46 187.335 273.278C187.451 273.097 187.51 272.891 187.51 272.661V271.966C187.453 272.003 187.375 272.037 187.275 272.068C187.179 272.097 187.069 272.124 186.947 272.149C186.825 272.172 186.703 272.193 186.581 272.213C186.458 272.23 186.348 272.246 186.248 272.26C186.035 272.291 185.849 272.341 185.69 272.409C185.531 272.477 185.407 272.57 185.319 272.686C185.231 272.8 185.187 272.942 185.187 273.112C185.187 273.359 185.277 273.548 185.456 273.679C185.637 273.807 185.868 273.871 186.146 273.871ZM191.607 277.455C191.377 277.455 191.161 277.436 190.959 277.399C190.76 277.365 190.596 277.321 190.465 277.267L190.874 275.912C191.087 275.977 191.279 276.013 191.449 276.018C191.623 276.024 191.772 275.984 191.897 275.899C192.025 275.814 192.128 275.669 192.208 275.464L192.314 275.188L189.966 268.455H191.875L193.23 273.261H193.299L194.667 268.455H196.588L194.044 275.707C193.922 276.06 193.756 276.366 193.546 276.628C193.338 276.892 193.076 277.095 192.757 277.237C192.439 277.382 192.056 277.455 191.607 277.455ZM200.289 275.128C199.616 275.128 199.037 274.991 198.551 274.719C198.068 274.443 197.696 274.054 197.434 273.551C197.173 273.045 197.042 272.447 197.042 271.757C197.042 271.084 197.173 270.493 197.434 269.984C197.696 269.476 198.064 269.08 198.538 268.795C199.015 268.511 199.575 268.369 200.217 268.369C200.649 268.369 201.051 268.439 201.423 268.578C201.798 268.714 202.125 268.92 202.403 269.196C202.684 269.472 202.903 269.818 203.059 270.236C203.216 270.651 203.294 271.136 203.294 271.693V272.192H197.767V271.067H201.585C201.585 270.805 201.528 270.574 201.414 270.372C201.301 270.17 201.143 270.013 200.941 269.899C200.743 269.783 200.511 269.724 200.247 269.724C199.971 269.724 199.727 269.788 199.514 269.916C199.304 270.041 199.139 270.21 199.02 270.423C198.9 270.634 198.839 270.868 198.836 271.126V272.196C198.836 272.52 198.896 272.8 199.015 273.036C199.137 273.271 199.309 273.453 199.531 273.581C199.752 273.709 200.015 273.773 200.319 273.773C200.521 273.773 200.706 273.744 200.873 273.688C201.041 273.631 201.184 273.545 201.304 273.432C201.423 273.318 201.514 273.179 201.576 273.014L203.255 273.125C203.17 273.528 202.995 273.881 202.731 274.182C202.47 274.48 202.132 274.713 201.717 274.881C201.305 275.045 200.829 275.128 200.289 275.128ZM204.478 275V268.455H206.238V269.597H206.306C206.426 269.19 206.626 268.884 206.907 268.676C207.189 268.466 207.512 268.361 207.879 268.361C207.97 268.361 208.068 268.366 208.173 268.378C208.278 268.389 208.37 268.405 208.45 268.425V270.036C208.365 270.01 208.247 269.987 208.096 269.967C207.946 269.947 207.808 269.938 207.683 269.938C207.416 269.938 207.177 269.996 206.967 270.112C206.76 270.226 206.595 270.385 206.473 270.589C206.353 270.794 206.294 271.03 206.294 271.297V275H204.478Z" fill="white"/>
<rect x="101.5" y="254.5" width="149" height="33" rx="3.5" fill="#31A9E9" stroke="black"/>
<path d="M148.587 275H145.493V266.273H148.612C149.49 266.273 150.246 266.447 150.879 266.797C151.513 267.143 152 267.642 152.341 268.293C152.685 268.943 152.857 269.722 152.857 270.628C152.857 271.537 152.685 272.318 152.341 272.972C152 273.625 151.51 274.126 150.871 274.476C150.234 274.825 149.473 275 148.587 275ZM147.338 273.419H148.51C149.055 273.419 149.514 273.322 149.886 273.129C150.261 272.933 150.543 272.631 150.73 272.222C150.92 271.81 151.016 271.278 151.016 270.628C151.016 269.983 150.92 269.456 150.73 269.047C150.543 268.638 150.263 268.337 149.891 268.143C149.518 267.95 149.06 267.854 148.514 267.854H147.338V273.419ZM156.056 275.124C155.638 275.124 155.266 275.051 154.939 274.906C154.613 274.759 154.354 274.541 154.164 274.254C153.976 273.964 153.882 273.604 153.882 273.172C153.882 272.808 153.949 272.503 154.083 272.256C154.216 272.009 154.398 271.81 154.628 271.659C154.858 271.509 155.12 271.395 155.412 271.318C155.708 271.241 156.017 271.188 156.341 271.156C156.722 271.116 157.029 271.08 157.262 271.045C157.495 271.009 157.664 270.955 157.769 270.884C157.874 270.812 157.926 270.707 157.926 270.568V270.543C157.926 270.273 157.841 270.064 157.671 269.916C157.503 269.768 157.265 269.695 156.955 269.695C156.628 269.695 156.368 269.767 156.175 269.912C155.982 270.054 155.854 270.233 155.792 270.449L154.113 270.312C154.198 269.915 154.365 269.571 154.615 269.281C154.865 268.989 155.188 268.764 155.583 268.608C155.98 268.449 156.441 268.369 156.963 268.369C157.327 268.369 157.675 268.412 158.007 268.497C158.343 268.582 158.64 268.714 158.898 268.893C159.159 269.072 159.365 269.303 159.516 269.584C159.667 269.862 159.742 270.196 159.742 270.585V275H158.02V274.092H157.969C157.864 274.297 157.723 274.477 157.547 274.634C157.371 274.787 157.159 274.908 156.912 274.996C156.665 275.081 156.38 275.124 156.056 275.124ZM156.576 273.871C156.843 273.871 157.078 273.818 157.283 273.713C157.488 273.605 157.648 273.46 157.765 273.278C157.881 273.097 157.939 272.891 157.939 272.661V271.966C157.882 272.003 157.804 272.037 157.705 272.068C157.608 272.097 157.499 272.124 157.377 272.149C157.255 272.172 157.132 272.193 157.01 272.213C156.888 272.23 156.777 272.246 156.678 272.26C156.465 272.291 156.279 272.341 156.12 272.409C155.961 272.477 155.837 272.57 155.749 272.686C155.661 272.8 155.617 272.942 155.617 273.112C155.617 273.359 155.706 273.548 155.885 273.679C156.067 273.807 156.297 273.871 156.576 273.871ZM164.632 268.455V269.818H160.69V268.455H164.632ZM161.585 266.886H163.4V272.989C163.4 273.156 163.426 273.287 163.477 273.381C163.528 273.472 163.599 273.536 163.69 273.572C163.784 273.609 163.892 273.628 164.014 273.628C164.099 273.628 164.184 273.621 164.27 273.607C164.355 273.589 164.42 273.577 164.466 273.568L164.751 274.919C164.66 274.947 164.532 274.98 164.368 275.017C164.203 275.057 164.002 275.081 163.767 275.089C163.329 275.107 162.946 275.048 162.616 274.915C162.289 274.781 162.035 274.574 161.853 274.293C161.672 274.011 161.582 273.656 161.585 273.227V266.886ZM167.681 275.124C167.263 275.124 166.891 275.051 166.564 274.906C166.238 274.759 165.979 274.541 165.789 274.254C165.601 273.964 165.507 273.604 165.507 273.172C165.507 272.808 165.574 272.503 165.708 272.256C165.841 272.009 166.023 271.81 166.253 271.659C166.483 271.509 166.745 271.395 167.037 271.318C167.333 271.241 167.642 271.188 167.966 271.156C168.347 271.116 168.654 271.08 168.887 271.045C169.12 271.009 169.289 270.955 169.394 270.884C169.499 270.812 169.551 270.707 169.551 270.568V270.543C169.551 270.273 169.466 270.064 169.296 269.916C169.128 269.768 168.89 269.695 168.58 269.695C168.253 269.695 167.993 269.767 167.8 269.912C167.607 270.054 167.479 270.233 167.417 270.449L165.738 270.312C165.823 269.915 165.99 269.571 166.24 269.281C166.49 268.989 166.813 268.764 167.208 268.608C167.605 268.449 168.066 268.369 168.588 268.369C168.952 268.369 169.3 268.412 169.632 268.497C169.968 268.582 170.265 268.714 170.523 268.893C170.784 269.072 170.99 269.303 171.141 269.584C171.292 269.862 171.367 270.196 171.367 270.585V275H169.645V274.092H169.594C169.489 274.297 169.348 274.477 169.172 274.634C168.996 274.787 168.784 274.908 168.537 274.996C168.29 275.081 168.005 275.124 167.681 275.124ZM168.201 273.871C168.468 273.871 168.703 273.818 168.908 273.713C169.113 273.605 169.273 273.46 169.39 273.278C169.506 273.097 169.564 272.891 169.564 272.661V271.966C169.507 272.003 169.429 272.037 169.33 272.068C169.233 272.097 169.124 272.124 169.002 272.149C168.88 272.172 168.757 272.193 168.635 272.213C168.513 272.23 168.402 272.246 168.303 272.26C168.09 272.291 167.904 272.341 167.745 272.409C167.586 272.477 167.462 272.57 167.374 272.686C167.286 272.8 167.242 272.942 167.242 273.112C167.242 273.359 167.331 273.548 167.51 273.679C167.692 273.807 167.922 273.871 168.201 273.871ZM175.587 275V266.273H177.432V273.479H181.173V275H175.587ZM184.228 275.124C183.81 275.124 183.438 275.051 183.111 274.906C182.784 274.759 182.526 274.541 182.336 274.254C182.148 273.964 182.054 273.604 182.054 273.172C182.054 272.808 182.121 272.503 182.255 272.256C182.388 272.009 182.57 271.81 182.8 271.659C183.03 271.509 183.292 271.395 183.584 271.318C183.88 271.241 184.189 271.188 184.513 271.156C184.894 271.116 185.201 271.08 185.434 271.045C185.667 271.009 185.836 270.955 185.941 270.884C186.046 270.812 186.098 270.707 186.098 270.568V270.543C186.098 270.273 186.013 270.064 185.843 269.916C185.675 269.768 185.436 269.695 185.127 269.695C184.8 269.695 184.54 269.767 184.347 269.912C184.154 270.054 184.026 270.233 183.963 270.449L182.284 270.312C182.37 269.915 182.537 269.571 182.787 269.281C183.037 268.989 183.36 268.764 183.755 268.608C184.152 268.449 184.613 268.369 185.135 268.369C185.499 268.369 185.847 268.412 186.179 268.497C186.515 268.582 186.811 268.714 187.07 268.893C187.331 269.072 187.537 269.303 187.688 269.584C187.838 269.862 187.914 270.196 187.914 270.585V275H186.192V274.092H186.141C186.036 274.297 185.895 274.477 185.719 274.634C185.543 274.787 185.331 274.908 185.084 274.996C184.837 275.081 184.551 275.124 184.228 275.124ZM184.748 273.871C185.015 273.871 185.25 273.818 185.455 273.713C185.659 273.605 185.82 273.46 185.936 273.278C186.053 273.097 186.111 272.891 186.111 272.661V271.966C186.054 272.003 185.976 272.037 185.877 272.068C185.78 272.097 185.671 272.124 185.549 272.149C185.426 272.172 185.304 272.193 185.182 272.213C185.06 272.23 184.949 272.246 184.85 272.26C184.637 272.291 184.451 272.341 184.292 272.409C184.132 272.477 184.009 272.57 183.921 272.686C183.833 272.8 183.789 272.942 183.789 273.112C183.789 273.359 183.878 273.548 184.057 273.679C184.239 273.807 184.469 273.871 184.748 273.871ZM190.208 277.455C189.978 277.455 189.762 277.436 189.561 277.399C189.362 277.365 189.197 277.321 189.066 277.267L189.475 275.912C189.689 275.977 189.88 276.013 190.051 276.018C190.224 276.024 190.373 275.984 190.498 275.899C190.626 275.814 190.73 275.669 190.809 275.464L190.916 275.188L188.568 268.455H190.477L191.832 273.261H191.9L193.268 268.455H195.19L192.646 275.707C192.524 276.06 192.358 276.366 192.147 276.628C191.94 276.892 191.677 277.095 191.359 277.237C191.041 277.382 190.657 277.455 190.208 277.455ZM198.891 275.128C198.218 275.128 197.638 274.991 197.152 274.719C196.669 274.443 196.297 274.054 196.036 273.551C195.775 273.045 195.644 272.447 195.644 271.757C195.644 271.084 195.775 270.493 196.036 269.984C196.297 269.476 196.665 269.08 197.14 268.795C197.617 268.511 198.176 268.369 198.819 268.369C199.25 268.369 199.652 268.439 200.025 268.578C200.4 268.714 200.726 268.92 201.005 269.196C201.286 269.472 201.505 269.818 201.661 270.236C201.817 270.651 201.895 271.136 201.895 271.693V272.192H196.368V271.067H200.186C200.186 270.805 200.13 270.574 200.016 270.372C199.902 270.17 199.745 270.013 199.543 269.899C199.344 269.783 199.113 269.724 198.848 269.724C198.573 269.724 198.328 269.788 198.115 269.916C197.905 270.041 197.74 270.21 197.621 270.423C197.502 270.634 197.441 270.868 197.438 271.126V272.196C197.438 272.52 197.498 272.8 197.617 273.036C197.739 273.271 197.911 273.453 198.132 273.581C198.354 273.709 198.617 273.773 198.921 273.773C199.123 273.773 199.307 273.744 199.475 273.688C199.642 273.631 199.786 273.545 199.905 273.432C200.025 273.318 200.115 273.179 200.178 273.014L201.857 273.125C201.772 273.528 201.597 273.881 201.333 274.182C201.071 274.48 200.733 274.713 200.319 274.881C199.907 275.045 199.431 275.128 198.891 275.128ZM203.08 275V268.455H204.84V269.597H204.908C205.027 269.19 205.228 268.884 205.509 268.676C205.79 268.466 206.114 268.361 206.48 268.361C206.571 268.361 206.669 268.366 206.775 268.378C206.88 268.389 206.972 268.405 207.051 268.425V270.036C206.966 270.01 206.848 269.987 206.698 269.967C206.547 269.947 206.409 269.938 206.284 269.938C206.017 269.938 205.779 269.996 205.569 270.112C205.361 270.226 205.196 270.385 205.074 270.589C204.955 270.794 204.895 271.03 204.895 271.297V275H203.08Z" fill="white"/>
<rect x="101.5" y="198.5" width="149" height="33" rx="3.5" fill="#31A9E9" stroke="black"/>
<path d="M150.149 210.273H151.994V215.94C151.994 216.577 151.842 217.134 151.538 217.611C151.237 218.088 150.815 218.46 150.273 218.727C149.73 218.991 149.098 219.124 148.376 219.124C147.652 219.124 147.018 218.991 146.476 218.727C145.933 218.46 145.511 218.088 145.21 217.611C144.909 217.134 144.759 216.577 144.759 215.94V210.273H146.604V215.783C146.604 216.115 146.676 216.411 146.821 216.669C146.969 216.928 147.176 217.131 147.443 217.278C147.71 217.426 148.021 217.5 148.376 217.5C148.734 217.5 149.045 217.426 149.31 217.278C149.577 217.131 149.783 216.928 149.928 216.669C150.075 216.411 150.149 216.115 150.149 215.783V210.273ZM155.358 210.273V219H153.512V210.273H155.358ZM162.266 210.273H164.112V215.94C164.112 216.577 163.96 217.134 163.656 217.611C163.354 218.088 162.933 218.46 162.39 218.727C161.847 218.991 161.215 219.124 160.494 219.124C159.769 219.124 159.136 218.991 158.593 218.727C158.05 218.46 157.629 218.088 157.327 217.611C157.026 217.134 156.876 216.577 156.876 215.94V210.273H158.721V215.783C158.721 216.115 158.793 216.411 158.938 216.669C159.086 216.928 159.293 217.131 159.56 217.278C159.827 217.426 160.138 217.5 160.494 217.5C160.852 217.5 161.163 217.426 161.427 217.278C161.694 217.131 161.9 216.928 162.045 216.669C162.192 216.411 162.266 216.115 162.266 215.783V210.273ZM167.36 210.273L169.12 213.247H169.188L170.956 210.273H173.04L170.377 214.636L173.1 219H170.978L169.188 216.021H169.12L167.33 219H165.216L167.948 214.636L165.267 210.273H167.36ZM176.985 219V210.273H178.83V217.479H182.572V219H176.985ZM185.626 219.124C185.208 219.124 184.836 219.051 184.51 218.906C184.183 218.759 183.924 218.541 183.734 218.254C183.547 217.964 183.453 217.604 183.453 217.172C183.453 216.808 183.52 216.503 183.653 216.256C183.787 216.009 183.968 215.81 184.199 215.659C184.429 215.509 184.69 215.395 184.983 215.318C185.278 215.241 185.588 215.188 185.912 215.156C186.292 215.116 186.599 215.08 186.832 215.045C187.065 215.009 187.234 214.955 187.339 214.884C187.444 214.812 187.497 214.707 187.497 214.568V214.543C187.497 214.273 187.412 214.064 187.241 213.916C187.074 213.768 186.835 213.695 186.525 213.695C186.199 213.695 185.939 213.767 185.745 213.912C185.552 214.054 185.424 214.233 185.362 214.449L183.683 214.312C183.768 213.915 183.936 213.571 184.186 213.281C184.436 212.989 184.758 212.764 185.153 212.608C185.551 212.449 186.011 212.369 186.534 212.369C186.897 212.369 187.245 212.412 187.578 212.497C187.913 212.582 188.21 212.714 188.468 212.893C188.73 213.072 188.936 213.303 189.086 213.584C189.237 213.862 189.312 214.196 189.312 214.585V219H187.591V218.092H187.539C187.434 218.297 187.294 218.477 187.118 218.634C186.941 218.787 186.73 218.908 186.483 218.996C186.235 219.081 185.95 219.124 185.626 219.124ZM186.146 217.871C186.413 217.871 186.649 217.818 186.853 217.713C187.058 217.605 187.218 217.46 187.335 217.278C187.451 217.097 187.51 216.891 187.51 216.661V215.966C187.453 216.003 187.375 216.037 187.275 216.068C187.179 216.097 187.069 216.124 186.947 216.149C186.825 216.172 186.703 216.193 186.581 216.213C186.458 216.23 186.348 216.246 186.248 216.26C186.035 216.291 185.849 216.341 185.69 216.409C185.531 216.477 185.407 216.57 185.319 216.686C185.231 216.8 185.187 216.942 185.187 217.112C185.187 217.359 185.277 217.548 185.456 217.679C185.637 217.807 185.868 217.871 186.146 217.871ZM191.607 221.455C191.377 221.455 191.161 221.436 190.959 221.399C190.76 221.365 190.596 221.321 190.465 221.267L190.874 219.912C191.087 219.977 191.279 220.013 191.449 220.018C191.623 220.024 191.772 219.984 191.897 219.899C192.025 219.814 192.128 219.669 192.208 219.464L192.314 219.188L189.966 212.455H191.875L193.23 217.261H193.299L194.667 212.455H196.588L194.044 219.707C193.922 220.06 193.756 220.366 193.546 220.628C193.338 220.892 193.076 221.095 192.757 221.237C192.439 221.382 192.056 221.455 191.607 221.455ZM200.289 219.128C199.616 219.128 199.037 218.991 198.551 218.719C198.068 218.443 197.696 218.054 197.434 217.551C197.173 217.045 197.042 216.447 197.042 215.757C197.042 215.084 197.173 214.493 197.434 213.984C197.696 213.476 198.064 213.08 198.538 212.795C199.015 212.511 199.575 212.369 200.217 212.369C200.649 212.369 201.051 212.439 201.423 212.578C201.798 212.714 202.125 212.92 202.403 213.196C202.684 213.472 202.903 213.818 203.059 214.236C203.216 214.651 203.294 215.136 203.294 215.693V216.192H197.767V215.067H201.585C201.585 214.805 201.528 214.574 201.414 214.372C201.301 214.17 201.143 214.013 200.941 213.899C200.743 213.783 200.511 213.724 200.247 213.724C199.971 213.724 199.727 213.788 199.514 213.916C199.304 214.041 199.139 214.21 199.02 214.423C198.9 214.634 198.839 214.868 198.836 215.126V216.196C198.836 216.52 198.896 216.8 199.015 217.036C199.137 217.271 199.309 217.453 199.531 217.581C199.752 217.709 200.015 217.773 200.319 217.773C200.521 217.773 200.706 217.744 200.873 217.688C201.041 217.631 201.184 217.545 201.304 217.432C201.423 217.318 201.514 217.179 201.576 217.014L203.255 217.125C203.17 217.528 202.995 217.881 202.731 218.182C202.47 218.48 202.132 218.713 201.717 218.881C201.305 219.045 200.829 219.128 200.289 219.128ZM204.478 219V212.455H206.238V213.597H206.306C206.426 213.19 206.626 212.884 206.907 212.676C207.189 212.466 207.512 212.361 207.879 212.361C207.97 212.361 208.068 212.366 208.173 212.378C208.278 212.389 208.37 212.405 208.45 212.425V214.036C208.365 214.01 208.247 213.987 208.096 213.967C207.946 213.947 207.808 213.938 207.683 213.938C207.416 213.938 207.177 213.996 206.967 214.112C206.76 214.226 206.595 214.385 206.473 214.589C206.353 214.794 206.294 215.03 206.294 215.297V219H204.478Z" fill="white"/>
<rect x="101.5" y="198.5" width="149" height="33" rx="3.5" fill="#31A9E9" stroke="black"/>
<path d="M146.089 214.636C146.089 215.588 145.909 216.398 145.548 217.065C145.19 217.733 144.701 218.243 144.082 218.595C143.465 218.945 142.772 219.119 142.002 219.119C141.227 219.119 140.531 218.943 139.914 218.591C139.298 218.239 138.811 217.729 138.453 217.061C138.095 216.393 137.916 215.585 137.916 214.636C137.916 213.685 138.095 212.875 138.453 212.207C138.811 211.54 139.298 211.031 139.914 210.682C140.531 210.33 141.227 210.153 142.002 210.153C142.772 210.153 143.465 210.33 144.082 210.682C144.701 211.031 145.19 211.54 145.548 212.207C145.909 212.875 146.089 213.685 146.089 214.636ZM144.218 214.636C144.218 214.02 144.126 213.5 143.941 213.077C143.759 212.653 143.502 212.332 143.17 212.114C142.838 211.895 142.448 211.786 142.002 211.786C141.556 211.786 141.167 211.895 140.835 212.114C140.502 212.332 140.244 212.653 140.059 213.077C139.877 213.5 139.786 214.02 139.786 214.636C139.786 215.253 139.877 215.773 140.059 216.196C140.244 216.619 140.502 216.94 140.835 217.159C141.167 217.378 141.556 217.487 142.002 217.487C142.448 217.487 142.838 217.378 143.17 217.159C143.502 216.94 143.759 216.619 143.941 216.196C144.126 215.773 144.218 215.253 144.218 214.636ZM147.456 219V210.273H149.271V213.554H149.327C149.406 213.378 149.521 213.199 149.672 213.017C149.825 212.832 150.024 212.679 150.268 212.557C150.515 212.432 150.822 212.369 151.189 212.369C151.666 212.369 152.106 212.494 152.51 212.744C152.913 212.991 153.236 213.365 153.477 213.865C153.719 214.362 153.839 214.986 153.839 215.736C153.839 216.466 153.721 217.082 153.486 217.585C153.253 218.085 152.934 218.464 152.531 218.723C152.131 218.979 151.682 219.107 151.184 219.107C150.832 219.107 150.532 219.048 150.285 218.932C150.041 218.815 149.841 218.669 149.684 218.493C149.528 218.314 149.409 218.134 149.327 217.952H149.246V219H147.456ZM149.233 215.727C149.233 216.116 149.287 216.456 149.395 216.746C149.503 217.036 149.659 217.261 149.863 217.423C150.068 217.582 150.317 217.662 150.609 217.662C150.905 217.662 151.155 217.581 151.359 217.419C151.564 217.254 151.719 217.027 151.824 216.737C151.932 216.445 151.986 216.108 151.986 215.727C151.986 215.349 151.933 215.017 151.828 214.73C151.723 214.443 151.568 214.219 151.363 214.057C151.159 213.895 150.907 213.814 150.609 213.814C150.314 213.814 150.064 213.892 149.859 214.048C149.657 214.205 149.503 214.426 149.395 214.713C149.287 215 149.233 215.338 149.233 215.727ZM155.051 212.455H156.866V219.324C156.866 219.83 156.767 220.239 156.568 220.551C156.369 220.864 156.083 221.092 155.711 221.237C155.342 221.382 154.9 221.455 154.386 221.455C154.323 221.455 154.264 221.453 154.207 221.45C154.147 221.45 154.085 221.449 154.019 221.446V220.027C154.068 220.03 154.11 220.031 154.147 220.031C154.181 220.034 154.218 220.036 154.258 220.036C154.551 220.036 154.755 219.973 154.872 219.848C154.991 219.726 155.051 219.541 155.051 219.294V212.455ZM155.954 211.611C155.687 211.611 155.457 211.521 155.264 211.342C155.07 211.161 154.974 210.943 154.974 210.69C154.974 210.44 155.07 210.226 155.264 210.047C155.457 209.865 155.687 209.774 155.954 209.774C156.227 209.774 156.458 209.865 156.649 210.047C156.842 210.226 156.938 210.44 156.938 210.69C156.938 210.943 156.842 211.161 156.649 211.342C156.458 211.521 156.227 211.611 155.954 211.611ZM161.303 219.128C160.63 219.128 160.05 218.991 159.564 218.719C159.081 218.443 158.709 218.054 158.448 217.551C158.187 217.045 158.056 216.447 158.056 215.757C158.056 215.084 158.187 214.493 158.448 213.984C158.709 213.476 159.077 213.08 159.552 212.795C160.029 212.511 160.589 212.369 161.231 212.369C161.662 212.369 162.064 212.439 162.437 212.578C162.812 212.714 163.138 212.92 163.417 213.196C163.698 213.472 163.917 213.818 164.073 214.236C164.229 214.651 164.307 215.136 164.307 215.693V216.192H158.78V215.067H162.599C162.599 214.805 162.542 214.574 162.428 214.372C162.314 214.17 162.157 214.013 161.955 213.899C161.756 213.783 161.525 213.724 161.26 213.724C160.985 213.724 160.741 213.788 160.528 213.916C160.317 214.041 160.153 214.21 160.033 214.423C159.914 214.634 159.853 214.868 159.85 215.126V216.196C159.85 216.52 159.91 216.8 160.029 217.036C160.151 217.271 160.323 217.453 160.545 217.581C160.766 217.709 161.029 217.773 161.333 217.773C161.535 217.773 161.719 217.744 161.887 217.688C162.055 217.631 162.198 217.545 162.317 217.432C162.437 217.318 162.528 217.179 162.59 217.014L164.269 217.125C164.184 217.528 164.009 217.881 163.745 218.182C163.483 218.48 163.145 218.713 162.731 218.881C162.319 219.045 161.843 219.128 161.303 219.128ZM168.449 219.128C167.779 219.128 167.202 218.986 166.719 218.702C166.239 218.415 165.87 218.017 165.611 217.509C165.356 217 165.228 216.415 165.228 215.753C165.228 215.082 165.357 214.494 165.616 213.989C165.877 213.48 166.248 213.084 166.728 212.8C167.208 212.513 167.779 212.369 168.441 212.369C169.012 212.369 169.512 212.473 169.941 212.68C170.37 212.888 170.709 213.179 170.959 213.554C171.209 213.929 171.347 214.369 171.373 214.875H169.66C169.611 214.548 169.483 214.286 169.276 214.087C169.072 213.885 168.803 213.784 168.471 213.784C168.189 213.784 167.944 213.861 167.733 214.014C167.526 214.165 167.364 214.385 167.248 214.675C167.131 214.964 167.073 215.315 167.073 215.727C167.073 216.145 167.13 216.5 167.243 216.793C167.36 217.085 167.523 217.308 167.733 217.462C167.944 217.615 168.189 217.692 168.471 217.692C168.678 217.692 168.864 217.649 169.029 217.564C169.197 217.479 169.334 217.355 169.442 217.193C169.553 217.028 169.626 216.831 169.66 216.601H171.373C171.344 217.101 171.208 217.541 170.964 217.922C170.722 218.3 170.388 218.595 169.962 218.808C169.536 219.021 169.032 219.128 168.449 219.128ZM176.017 212.455V213.818H172.075V212.455H176.017ZM172.97 210.886H174.785V216.989C174.785 217.156 174.811 217.287 174.862 217.381C174.913 217.472 174.984 217.536 175.075 217.572C175.169 217.609 175.276 217.628 175.399 217.628C175.484 217.628 175.569 217.621 175.654 217.607C175.74 217.589 175.805 217.577 175.85 217.568L176.136 218.919C176.045 218.947 175.917 218.98 175.752 219.017C175.588 219.057 175.387 219.081 175.151 219.089C174.714 219.107 174.33 219.048 174.001 218.915C173.674 218.781 173.42 218.574 173.238 218.293C173.056 218.011 172.967 217.656 172.97 217.227V210.886ZM180.01 219V210.273H181.856V217.479H185.597V219H180.01ZM188.651 219.124C188.234 219.124 187.862 219.051 187.535 218.906C187.208 218.759 186.95 218.541 186.759 218.254C186.572 217.964 186.478 217.604 186.478 217.172C186.478 216.808 186.545 216.503 186.678 216.256C186.812 216.009 186.994 215.81 187.224 215.659C187.454 215.509 187.715 215.395 188.008 215.318C188.303 215.241 188.613 215.188 188.937 215.156C189.318 215.116 189.624 215.08 189.857 215.045C190.09 215.009 190.259 214.955 190.365 214.884C190.47 214.812 190.522 214.707 190.522 214.568V214.543C190.522 214.273 190.437 214.064 190.267 213.916C190.099 213.768 189.86 213.695 189.551 213.695C189.224 213.695 188.964 213.767 188.771 213.912C188.578 214.054 188.45 214.233 188.387 214.449L186.708 214.312C186.794 213.915 186.961 213.571 187.211 213.281C187.461 212.989 187.784 212.764 188.178 212.608C188.576 212.449 189.036 212.369 189.559 212.369C189.923 212.369 190.271 212.412 190.603 212.497C190.938 212.582 191.235 212.714 191.494 212.893C191.755 213.072 191.961 213.303 192.112 213.584C192.262 213.862 192.338 214.196 192.338 214.585V219H190.616V218.092H190.565C190.46 218.297 190.319 218.477 190.143 218.634C189.967 218.787 189.755 218.908 189.508 218.996C189.261 219.081 188.975 219.124 188.651 219.124ZM189.171 217.871C189.438 217.871 189.674 217.818 189.879 217.713C190.083 217.605 190.244 217.46 190.36 217.278C190.477 217.097 190.535 216.891 190.535 216.661V215.966C190.478 216.003 190.4 216.037 190.301 216.068C190.204 216.097 190.095 216.124 189.972 216.149C189.85 216.172 189.728 216.193 189.606 216.213C189.484 216.23 189.373 216.246 189.274 216.26C189.061 216.291 188.874 216.341 188.715 216.409C188.556 216.477 188.433 216.57 188.345 216.686C188.257 216.8 188.213 216.942 188.213 217.112C188.213 217.359 188.302 217.548 188.481 217.679C188.663 217.807 188.893 217.871 189.171 217.871ZM194.632 221.455C194.402 221.455 194.186 221.436 193.985 221.399C193.786 221.365 193.621 221.321 193.49 221.267L193.899 219.912C194.112 219.977 194.304 220.013 194.475 220.018C194.648 220.024 194.797 219.984 194.922 219.899C195.05 219.814 195.154 219.669 195.233 219.464L195.34 219.188L192.992 212.455H194.901L196.256 217.261H196.324L197.692 212.455H199.614L197.07 219.707C196.948 220.06 196.781 220.366 196.571 220.628C196.364 220.892 196.101 221.095 195.783 221.237C195.465 221.382 195.081 221.455 194.632 221.455ZM203.315 219.128C202.642 219.128 202.062 218.991 201.576 218.719C201.093 218.443 200.721 218.054 200.46 217.551C200.198 217.045 200.068 216.447 200.068 215.757C200.068 215.084 200.198 214.493 200.46 213.984C200.721 213.476 201.089 213.08 201.563 212.795C202.041 212.511 202.6 212.369 203.242 212.369C203.674 212.369 204.076 212.439 204.448 212.578C204.823 212.714 205.15 212.92 205.428 213.196C205.71 213.472 205.928 213.818 206.085 214.236C206.241 214.651 206.319 215.136 206.319 215.693V216.192H200.792V215.067H204.61C204.61 214.805 204.553 214.574 204.44 214.372C204.326 214.17 204.169 214.013 203.967 213.899C203.768 213.783 203.536 213.724 203.272 213.724C202.997 213.724 202.752 213.788 202.539 213.916C202.329 214.041 202.164 214.21 202.045 214.423C201.926 214.634 201.865 214.868 201.862 215.126V216.196C201.862 216.52 201.921 216.8 202.041 217.036C202.163 217.271 202.335 217.453 202.556 217.581C202.778 217.709 203.041 217.773 203.345 217.773C203.546 217.773 203.731 217.744 203.899 217.688C204.066 217.631 204.21 217.545 204.329 217.432C204.448 217.318 204.539 217.179 204.602 217.014L206.281 217.125C206.195 217.528 206.021 217.881 205.757 218.182C205.495 218.48 205.157 218.713 204.742 218.881C204.33 219.045 203.855 219.128 203.315 219.128ZM207.504 219V212.455H209.264V213.597H209.332C209.451 213.19 209.651 212.884 209.933 212.676C210.214 212.466 210.538 212.361 210.904 212.361C210.995 212.361 211.093 212.366 211.198 212.378C211.303 212.389 211.396 212.405 211.475 212.425V214.036C211.39 214.01 211.272 213.987 211.122 213.967C210.971 213.947 210.833 213.938 210.708 213.938C210.441 213.938 210.203 213.996 209.992 214.112C209.785 214.226 209.62 214.385 209.498 214.589C209.379 214.794 209.319 215.03 209.319 215.297V219H207.504Z" fill="white"/>
<path d="M109.354 119.646C109.158 119.451 108.842 119.451 108.646 119.646L105.464 122.828C105.269 123.024 105.269 123.34 105.464 123.536C105.66 123.731 105.976 123.731 106.172 123.536L109 120.707L111.828 123.536C112.024 123.731 112.34 123.731 112.536 123.536C112.731 123.34 112.731 123.024 112.536 122.828L109.354 119.646ZM108.646 142.354C108.842 142.549 109.158 142.549 109.354 142.354L112.536 139.172C112.731 138.976 112.731 138.66 112.536 138.464C112.34 138.269 112.024 138.269 111.828 138.464L109 141.293L106.172 138.464C105.976 138.269 105.66 138.269 105.464 138.464C105.269 138.66 105.269 138.976 105.464 139.172L108.646 142.354ZM108.5 120V142H109.5V120H108.5Z" fill="black"/>
<path d="M144.396 198.476C144.592 198.672 144.908 198.672 145.104 198.476L148.286 195.294C148.481 195.099 148.481 194.783 148.286 194.587C148.09 194.392 147.774 194.392 147.578 194.587L144.75 197.416L141.922 194.587C141.726 194.392 141.41 194.392 141.214 194.587C141.019 194.783 141.019 195.099 141.214 195.294L144.396 198.476ZM145.104 175.621C144.908 175.426 144.592 175.426 144.396 175.621L141.214 178.803C141.019 178.998 141.019 179.315 141.214 179.51C141.41 179.705 141.726 179.705 141.922 179.51L144.75 176.682L147.578 179.51C147.774 179.705 148.09 179.705 148.286 179.51C148.481 179.315 148.481 178.998 148.286 178.803L145.104 175.621ZM145.25 198.123V175.975H144.25V198.123H145.25Z" fill="black"/>
</svg>
